<svg xmlns="http://www.w3.org/2000/svg" version="1.1" xmlns:xlink="http://www.w3.org/1999/xlink" xmlns:svgjs="http://svgjs.dev/svgjs" width="1440" height="2000" preserveAspectRatio="none" viewBox="0 0 1440 2000"><g mask="url(&quot;#SvgjsMask1017&quot;)" fill="none"><path d="M1604.31 1776C1395.89 1742.29 1403.72 1558.86 954.99 1236 506.26 913.14 813.31 112.76 630.33-209.17" stroke="rgba(51, 51, 51, 1)" stroke-width="2"></path><path d="M1571.05 409.79C1313.95 490.34 1266.14 1251.72 871.77 1229.79 477.4 1207.86 504.66-58.07 172.49-325.18" stroke="rgba(51, 51, 51, 1)" stroke-width="2"></path><path d="M1484.49 813.65C1233.99 875.52 1189.38 1591.07 765 1553.65 340.62 1516.23 391.02 190.12 45.51-99.23" stroke="rgba(51, 51, 51, 1)" stroke-width="2"></path><path d="M1448.88 1400.27C1214.92 1277.28 1353.98 727.56 894.08 500.27 434.19 272.98 565.07-221.35 339.29-325.81" stroke="rgba(51, 51, 51, 1)" stroke-width="2"></path><path d="M1651.93 729.61C1406.02 817.54 1395.07 1591.01 1004.72 1549.61 614.36 1508.21 682.06 162.3 357.5-159.15" stroke="rgba(51, 51, 51, 1)" stroke-width="2"></path></g><defs><mask id="SvgjsMask1017"><rect width="1440" height="2000" fill="#ffffff"></rect></mask></defs></svg>