<svg xmlns="http://www.w3.org/2000/svg" version="1.1" xmlns:xlink="http://www.w3.org/1999/xlink" xmlns:svgjs="http://svgjs.dev/svgjs" width="1440" height="3000" preserveAspectRatio="none" viewBox="0 0 1440 3000"><g clip-path="url(&quot;#SvgjsClipPath1279&quot;)" fill="none"><circle r="240" cx="-3.99" cy="207.67" stroke="#333333" stroke-opacity="1" stroke-width="2"></circle><circle r="240" cx="1091.17" cy="799.14" stroke="#333333" stroke-opacity="1" stroke-width="2"></circle><circle r="240" cx="2124.25" cy="1861.9" stroke="#333333" stroke-opacity="1" stroke-width="2"></circle><circle r="305.28" cx="468.96" cy="1884.06" stroke="#333333" stroke-opacity="1" stroke-width="2"></circle><circle r="120.4" cx="361.69" cy="2886.09" stroke="#333333" stroke-opacity="1" stroke-width="2"></circle><circle r="174.98" cx="769.98" cy="1088.29" stroke="#333333" stroke-opacity="1" stroke-width="2"></circle><circle r="166.185" cx="124.48" cy="605.22" stroke="#333333" stroke-opacity="1" stroke-width="2"></circle><circle r="277.115" cx="823.32" cy="2044.84" stroke="#333333" stroke-opacity="1" stroke-width="2"></circle><circle r="198.865" cx="1043.12" cy="1569.75" stroke="#333333" stroke-opacity="1" stroke-width="2"></circle><circle r="437.5" cx="854.93" cy="1718.38" stroke="#333333" stroke-opacity="1" stroke-width="2"></circle><circle r="178.94" cx="1159.5" cy="1116.41" stroke="#333333" stroke-opacity="1" stroke-width="2"></circle><circle r="457.085" cx="461.15" cy="2845.97" stroke="#333333" stroke-opacity="1" stroke-width="2"></circle><circle r="448.76" cx="1105.85" cy="1921.96" stroke="#333333" stroke-opacity="1" stroke-width="2"></circle><circle r="320.635" cx="1168.55" cy="79.51" stroke="#333333" stroke-opacity="1" stroke-width="2"></circle><circle r="370.345" cx="1253.35" cy="423.73" stroke="#333333" stroke-opacity="1" stroke-width="2"></circle><circle r="356.075" cx="290.67" cy="7.81" stroke="#333333" stroke-opacity="1" stroke-width="2"></circle><circle r="173.865" cx="557.45" cy="2875.29" stroke="#333333" stroke-opacity="1" stroke-width="2"></circle><circle r="438.33" cx="515.79" cy="1265.2" stroke="#333333" stroke-opacity="1" stroke-width="2"></circle><circle r="153.445" cx="112.36" cy="2687.05" stroke="#333333" stroke-opacity="1" stroke-width="2"></circle><circle r="319.975" cx="92.28" cy="1998.36" stroke="#333333" stroke-opacity="1" stroke-width="2"></circle><circle r="174.815" cx="348.51" cy="997.02" stroke="#333333" stroke-opacity="1" stroke-width="2"></circle><circle r="121.075" cx="1217.05" cy="1349.43" stroke="#333333" stroke-opacity="1" stroke-width="2"></circle><circle r="235.26" cx="224.79" cy="2366.11" stroke="#333333" stroke-opacity="1" stroke-width="2"></circle><circle r="437.11" cx="1415.18" cy="2075.18" stroke="#333333" stroke-opacity="1" stroke-width="2"></circle><circle r="199.995" cx="99.53" cy="499.1" stroke="#333333" stroke-opacity="1" stroke-width="2"></circle><circle r="392.955" cx="851.02" cy="2219.47" stroke="#333333" stroke-opacity="1" stroke-width="2"></circle><circle r="159.875" cx="439.79" cy="1152.07" stroke="#333333" stroke-opacity="1" stroke-width="2"></circle><circle r="172.075" cx="1430.3" cy="913.86" stroke="#333333" stroke-opacity="1" stroke-width="2"></circle><circle r="136.875" cx="1434.03" cy="2661.41" stroke="#333333" stroke-opacity="1" stroke-width="2"></circle><circle r="146.825" cx="1021.28" cy="1946.89" stroke="#333333" stroke-opacity="1" stroke-width="2"></circle><circle r="199.255" cx="504.67" cy="1429.03" stroke="#333333" stroke-opacity="1" stroke-width="2"></circle></g><defs><clipPath id="SvgjsClipPath1279"><rect width="1440" height="3000" x="0" y="0"></rect></clipPath></defs></svg>