<svg xmlns="http://www.w3.org/2000/svg" version="1.1" xmlns:xlink="http://www.w3.org/1999/xlink" xmlns:svgjs="http://svgjs.dev/svgjs" width="1440" height="2000" preserveAspectRatio="none" viewBox="0 0 1440 2000"><g mask="url(&quot;#SvgjsMask1018&quot;)" fill="none"><circle r="20.14" cx="158.98000000000002" cy="158.87" filter="url(#SvgjsFilter1019)" fill="rgba(51, 51, 51, 1)"></circle><circle r="20.13" cx="953.48" cy="1632.8600000000001" filter="url(#SvgjsFilter1019)" fill="rgba(51, 51, 51, 1)"></circle><circle r="19.405" cx="64.035" cy="800.255" filter="url(#SvgjsFilter1019)" fill="rgba(51, 51, 51, 1)"></circle><circle r="13.705" cx="963.745" cy="98.705" filter="url(#SvgjsFilter1019)" fill="rgba(51, 51, 51, 1)"></circle><circle r="22.77" cx="889.6999999999999" cy="474.33" filter="url(#SvgjsFilter1019)" fill="rgba(51, 51, 51, 1)"></circle><circle r="23.64" cx="373.44" cy="1699.3400000000001" filter="url(#SvgjsFilter1019)" fill="rgba(51, 51, 51, 1)"></circle><circle r="13.635" cx="264.305" cy="1488.075" filter="url(#SvgjsFilter1019)" fill="rgba(51, 51, 51, 1)"></circle><circle r="21.57" cx="1128.84" cy="1486.36" filter="url(#SvgjsFilter1019)" fill="rgba(51, 51, 51, 1)"></circle><circle r="17.73" cx="70.95" cy="1481.95" filter="url(#SvgjsFilter1019)" fill="rgba(51, 51, 51, 1)"></circle><circle r="17.86" cx="713.37" cy="728.38" filter="url(#SvgjsFilter1019)" fill="rgba(51, 51, 51, 1)"></circle><circle r="20.03" cx="1349.79" cy="1630.35" filter="url(#SvgjsFilter1019)" fill="rgba(51, 51, 51, 1)"></circle><circle r="17.41" cx="816.15" cy="1223.5600000000002" filter="url(#SvgjsFilter1019)" fill="rgba(51, 51, 51, 1)"></circle><circle r="22.815" cx="1107.025" cy="1106.905" filter="url(#SvgjsFilter1019)" fill="rgba(51, 51, 51, 1)"></circle><circle r="21.595" cx="1106.855" cy="1534.165" filter="url(#SvgjsFilter1019)" fill="rgba(51, 51, 51, 1)"></circle><circle r="17.365" cx="165.66500000000002" cy="1952.575" filter="url(#SvgjsFilter1019)" fill="rgba(51, 51, 51, 1)"></circle><circle r="12.93" cx="242.54000000000002" cy="1394.72" filter="url(#SvgjsFilter1019)" fill="rgba(51, 51, 51, 1)"></circle><circle r="16.125" cx="1276.075" cy="690.525" filter="url(#SvgjsFilter1019)" fill="rgba(51, 51, 51, 1)"></circle><circle r="23.33" cx="610.33" cy="1716.1899999999998" filter="url(#SvgjsFilter1019)" fill="rgba(51, 51, 51, 1)"></circle><circle r="23.325" cx="746.1750000000001" cy="637.315" filter="url(#SvgjsFilter1019)" fill="rgba(51, 51, 51, 1)"></circle><circle r="22.85" cx="945.1" cy="613.26" filter="url(#SvgjsFilter1019)" fill="rgba(51, 51, 51, 1)"></circle><path d="M321.7 2055.2L355.6 1989.9 374.8 1983.3 408.4 2013.7 404.4 2034.1 342.1 2073.7C341.5 2074.3 341.5 2074.3 340.9 2075 339.7 2076.3 339.2 2078.2 340.6 2080.7 342.6 2082.5 344.5 2083 346.9 2081.6L401.2 2046.8 394.6 2078 370.8 2093.6C370.8 2093.6 370.2 2094.3 370.2 2094.3 369 2095.6 368.5 2097.5 369.9 2100 370.6 2101.8 373.8 2102.3 376.2 2100.9L392.1 2091.3 386.9 2114.2C386.4 2116.1 387.8 2118.6 390.4 2119.7S395.3 2118.2 396.5 2115.6L401 2093.4 411.2 2108.6C412.6 2111.1 415.8 2111.5 418.2 2110.2 419.4 2108.8 420.5 2106.3 419.2 2103.8L403.5 2080.1 410.7 2048.2 445.5 2102.5C446.9 2105 450.1 2105.4 451.9 2104.7 453.7 2102.7 454.8 2100.2 453.5 2097.7L413.3 2036.1 417.9 2015.1 460 2001.7 475.8 2016 480.1 2089.5C480.2 2092 482.2 2093.8 484.7 2093.6S489 2091.5 488.9 2089L485.1 2024.4 509.4 2046.5 510.8 2074.1C510.9 2076.6 512.9 2078.4 516.1 2078.9S520.4 2076.8 520.3 2074.2L518.7 2054.8 536.5 2070.9C538.4 2072.7 541.5 2071.9 543.3 2069.9 545.1 2068 545 2065.5 543 2063.7L525.2 2047.6 544.1 2046.6C547.2 2047.1 549 2045.1 548.2 2042 548.1 2039.5 546.1 2037.7 543.6 2037.8L516 2039.2 491.6 2017.1 556.3 2014.5C558.8 2014.4 561.2 2011.8 561.1 2009.3S559 2005 556.5 2005.1L482.4 2008.8 466.6 1994.5 476.3 1950.6 496.2 1944.5 561.4 1978.4C564 1979.6 566.5 1978.2 568.2 1976.2 569.4 1973.6 568 1971.2 566 1969.4L508.5 1940.1 538.9 1930.5 564.1 1943.7C566.7 1944.8 569.1 1943.4 570.9 1941.4 571.4 1939.5 570.7 1936.4 568.1 1935.3L551.9 1926.7 574.2 1919.3C576.1 1918.5 577.2 1916 577.1 1913.5 575.7 1911 573.1 1909.9 571.3 1910.6L549 1918 557.6 1900.6C558.1 1898.7 557.3 1895.6 555.4 1895 553.4 1893.2 551.6 1894 549.8 1895.9 549.8 1895.9 549.2 1896.6 549.2 1896.6L536 1921.8 505.6 1931.5 534.8 1874C536 1871.4 535.8 1868.9 533.3 1867.8 530.7 1866.7 528.8 1867.4 527.6 1868.7 527.1 1869.4 527.1 1869.4 527.1 1869.4L493.2 1935.9 473.4 1941.9 439.8 1911.5 444.5 1891.7 506.6 1850.9C508.5 1850.2 508.9 1847 508.2 1845.1 506.8 1842.7 503.7 1842.2 501.2 1843.6L446.9 1878.4 453.6 1847.2 477.3 1831.6C479.8 1830.2 480.9 1827.6 478.9 1825.8 477.6 1823.4 474.4 1822.9 472.5 1823.6L456.7 1834.5 461.9 1811.6C461.7 1809.1 460.4 1806.6 457.8 1805.5 456.5 1805.5 454.7 1806.3 453.5 1807.6 452.9 1808.2 452.9 1808.2 453 1809.5L447.8 1832.4 436.9 1816.6C435.6 1814.1 433.1 1814.3 431.2 1815 430.6 1815.6 430.6 1815.6 430 1816.3 428.8 1817.6 428.3 1819.5 429 1821.4L444.7 1845.2 438 1876.3 403.2 1822C401.3 1820.3 398.7 1819.1 396.9 1821.1 395.6 1821.2 395.6 1821.2 395 1821.8 393.9 1823.1 394 1825.7 394.7 1827.5L435.6 1889.7 430.9 1909.4 388.1 1923.5 373 1909.8 369.3 1835.7C369.2 1833.2 366.5 1830.8 364 1830.9S359.1 1833.7 359.3 1836.2L363.1 1900.8 339.4 1879.3 337.3 1851.1C337.2 1848.6 335.2 1846.8 332.7 1847 330.2 1847.1 328.4 1849.1 328.6 1851.6L329.5 1870.4 311.7 1854.3C310.4 1853.1 307.2 1852.6 305.4 1854.6 303.6 1856.6 303.8 1860.3 305.1 1861.5L322.9 1877.6 304.1 1878.6C302.8 1878.6 301.6 1878.7 301 1879.4 299.8 1880.7 299.9 1881.9 299.9 1883.2 300.1 1885.7 302 1887.5 304.5 1887.4L332.8 1886.6 356.5 1908.1 291.9 1910.7C290.6 1910.7 290 1911.4 288.8 1912.7 288.2 1913.4 287.6 1914 287.7 1915.3 287.8 1917.8 290.4 1920.2 292.9 1920L366.4 1917 381.6 1930.7 372.4 1974 352.6 1981.3 286.7 1946.8C284.8 1946.3 282.3 1946.4 281.1 1947.7 280.5 1948.4 280.5 1948.4 281.2 1949 279.4 1950.9 280.2 1954 282.7 1955.2L340.2 1984.4 309.3 1994.8 284.1 1981.5C282.1 1981 280.3 1981.7 279.1 1983 279.1 1983 278.5 1983.7 278.5 1983.7 276.7 1985.7 277.5 1988.8 280.1 1989.9L297.5 1998.5 275.2 2005.9C273.9 2006 273.3 2006.6 272.7 2007.3 271.6 2008.6 271 2010.5 271.7 2011.1 272.5 2014.2 275 2015.3 277.5 2015.2L299.8 2007.8 291.2 2024C290.1 2026.5 290.9 2029.7 293.4 2030.8 295.3 2031.3 298.5 2030.5 299 2028.6L312.2 2003.4 342.6 1993.7 313.3 2051.2C312.2 2053.8 313.6 2056.2 315.6 2058 317.5 2058.5 320.6 2057.8 321.7 2055.2ZM411 2002.9L385.3 1979.6 381.3 1976.1 382.3 1971 389.5 1937.9 391.1 1932.2 396.1 1930.6 428.3 1920.2 433.2 1918.7 437.2 1922.3 462.9 1945.6 466.8 1949.1 465.8 1954.2 458.7 1987.3 457.7 1992.4 452.1 1994.6 419.9 2005 414.9 2006.5 411 2002.9Z" fill="rgba(51, 51, 51, 1)"></path><path d="M823.1 1174.7L816.8 1205.2 802.3 1193.3C800.9 1191.9 798.1 1192 795.8 1193.7 794.7 1196 794.8 1198.8 797.1 1199.9L814.7 1215.3 810.9 1239.3 774.1 1207C771.9 1205.9 769 1205.9 767.7 1207.4 765.7 1209.9 765.8 1212.7 768 1213.8L808.8 1249.4 801.8 1285.8 772.9 1254.5 769.9 1297 741.7 1273 751.3 1219.7C752.1 1219.4 751.8 1218.6 751.5 1217.7 750.9 1216.1 749.5 1214.7 747.5 1214.4 745.6 1214.2 743.3 1215.9 742.2 1218.2L733.7 1266.4 715.8 1250.1 719.9 1227C720.4 1225.8 720.1 1225 719.8 1224.1 719.6 1223.3 718.1 1221.9 716.2 1221.7 714.2 1221.4 712 1223.1 711.7 1225.1L707.8 1243.5 683.9 1223.6C682.1 1221.4 679.6 1222.3 677.4 1224 676 1225.4 676.1 1228.2 678.6 1230.1L701.7 1250.3 684.1 1256.5C681.6 1257.4 680.8 1260.5 681.4 1262.1 682.3 1264.7 684.5 1265.8 687 1264.9L709.7 1256.9 727.7 1273.2 682.4 1289.1C679.8 1290 678.8 1292.3 679.6 1294.8 680.2 1296.5 682.8 1298.4 685.3 1297.5L735.6 1279.8 763.8 1303.9 722.9 1313.5 757.6 1337.1 722.4 1349.5 681.9 1314.7C679.4 1312.8 676.8 1313.7 675.5 1315.1 674.1 1316.5 674.1 1319.3 675.8 1321.6L713.2 1352.7 690.5 1360.7 672 1345.5C670.3 1343.3 667.5 1343.3 665.5 1345.9 664.2 1347.3 664.2 1350.1 666.8 1352.1L680.5 1364.2 651.1 1374.5C648.6 1375.4 647.5 1377.7 648.4 1380.2S651.5 1383.8 654 1382.9L683.4 1372.6 680.3 1390.6C679.5 1393.7 681.2 1396 683.2 1396.2 686.3 1397 688.5 1395.3 688.5 1392.5L693.5 1369.1 716.1 1361.1 706.5 1408.8C706.5 1411.6 708.2 1413.8 710.2 1414.1 713.3 1414.9 715.5 1413.1 715.5 1410.3L725.3 1357.9 760.6 1345.5 748.3 1385.6 786.2 1367.6 779.2 1404 728.9 1421.6C726.4 1422.5 725.6 1425.6 726.2 1427.3 727 1429.8 729.3 1430.9 731.8 1430L777.9 1413.8 773.3 1438.1 750.6 1446C748.1 1446.9 747 1449.2 747.9 1451.7 748.5 1453.4 751.1 1455.3 753.6 1454.4L771.2 1448.2 765.8 1478.4C765 1481.5 766.7 1483.7 769.5 1483.7 771.5 1483.9 774 1483.1 773.9 1480.2L780.2 1449.8 794.7 1461.6C796.2 1463 799 1463 800.3 1461.6 801.7 1460.1 802 1458.2 801.7 1457.3 801.4 1456.5 801.1 1455.6 800 1455.1L782.3 1439.6 786.1 1415.7 822.9 1448C825.2 1449.1 828 1449 829.4 1447.6 830.7 1446.2 831 1444.2 830.4 1442.5 830.1 1441.7 830.1 1441.7 829 1441.1L788.2 1405.5 795.2 1369.1 824.1 1400.5 827.1 1358 855.3 1382 845.8 1435.3C845.5 1437.2 846.4 1439.7 849.5 1440.5 851.5 1440.8 853.7 1439.1 854.8 1436.8L863.3 1388.6 881.3 1404.9 877.1 1428C876 1430.3 877.8 1432.5 880.9 1433.3 882.8 1433.5 885.1 1431.8 886.1 1429.6L889.2 1411.5 913.2 1431.4C914.9 1433.6 917.4 1432.7 919.6 1431 920.2 1429.9 920.4 1427.9 920.1 1427 919.8 1426.2 919.5 1425.4 918.4 1424.8L895.3 1404.7 912.9 1398.5C915.4 1397.6 916.2 1394.5 915.6 1392.8L915.6 1392.8C914.8 1390.3 912.5 1389.2 910 1390.1L887.3 1398 869.4 1381.7 914.7 1365.9C917.2 1365 918.3 1362.7 917.4 1360.2S914.2 1356.6 911.7 1357.5L861.4 1375.1 833.2 1351.1 874.1 1341.5 839.4 1317.8 874.6 1305.5 915.1 1340.3C917.7 1342.2 920.2 1341.3 921.6 1339.9 922.9 1338.5 922.9 1335.6 921.2 1333.4L884.7 1301.9 906.5 1294.3 925 1309.5C926.7 1311.7 929.5 1311.6 931.5 1309.1 932.9 1307.7 932.8 1304.8 931.1 1302.6L916.6 1290.8 945.9 1280.5C948.4 1279.6 949.5 1277.3 948.6 1274.8S945.5 1271.2 943 1272.1L913.6 1282.4 916.7 1264.3C917.3 1263.2 917 1262.4 916.7 1261.5 916.1 1259.8 914.9 1259.3 913.8 1258.8 910.7 1258 908.5 1259.7 908.5 1262.5L903.6 1285.9 880.9 1293.9 890.6 1246.2C890.3 1245.4 890 1244.5 889.7 1243.7 889.1 1242 888 1241.5 886.8 1240.9 883.7 1240.1 881.5 1241.8 881.5 1244.6L871.7 1297.1 836.5 1309.5 848.8 1269.3 810.8 1287.4 817.8 1251 868.1 1233.3C870.7 1232.4 871.5 1229.3 870.9 1227.7 870 1225.1 867.7 1224.1 865.2 1224.9L819.9 1240.8 823.8 1216.9 846.4 1208.9C848.9 1208.1 850 1205.8 849.1 1203.3S846 1199.7 843.5 1200.5L825.8 1206.7 831.3 1176.6C831.8 1175.4 831.5 1174.6 831.2 1173.8 830.9 1172.9 829.5 1171.5 827.5 1171.3 825.6 1171 823 1171.9 823.1 1174.7ZM834.7 1285.6L824.5 1318.4 852.9 1337.6 819 1345.7 816.8 1379.5 793 1354.8 762.3 1369.4 772.5 1336.6 744.1 1317.4 777.1 1309.5 780.3 1275.5 803.1 1300.4 834.7 1285.6Z" fill="rgba(51, 51, 51, 1)"></path><path d="M1201.8 1841.6L1185.1 1863.1 1178.3 1848.2C1177.7 1846.5 1175.5 1845.5 1173.1 1846 1171.3 1847.3 1170.3 1849.5 1171.6 1851.3L1179.5 1870.2 1167.2 1887.6 1150.9 1848C1149.5 1846.2 1147.3 1845.2 1145.7 1845.8 1143.2 1847 1142.1 1849.2 1143.5 1851L1161.6 1894.7 1142.1 1920.5 1131.5 1884.8 1112.7 1917 1099.9 1887.2 1128 1849.1C1128.8 1849.2 1128.9 1848.4 1129 1847.7 1129.2 1846.1 1128.6 1844.5 1127.1 1843.5 1125.7 1842.5 1123.3 1843 1121.5 1844.4L1096.2 1878.9 1088.4 1859.2 1100.6 1842.6C1101.5 1842 1101.6 1841.2 1101.6 1840.4 1101.7 1839.6 1101.2 1838 1099.7 1837 1098.3 1836.1 1095.8 1836.6 1094.9 1838L1084.7 1850.9 1073.6 1826C1073.1 1823.6 1070.8 1823.3 1068.4 1823.8 1066.8 1824.4 1065.7 1826.6 1067 1829.1L1077.3 1853.9 1061.1 1851.9C1058.8 1851.7 1056.9 1853.8 1056.7 1855.3 1056.5 1857.6 1057.8 1859.4 1060.1 1859.7L1081 1862.2 1088.8 1881.9 1047.1 1876.9C1044.8 1876.6 1043 1877.9 1042.7 1880.3 1042.6 1881.8 1043.8 1884.3 1046.1 1884.6L1092.5 1890.2 1105.3 1920 1069.5 1911.7 1087.5 1943.7 1055.1 1939.7 1036.8 1896.8C1035.6 1894.3 1033.2 1894 1031.6 1894.6 1030 1895.2 1028.9 1897.4 1029.4 1899.8L1046.6 1938.7 1025.8 1936.2 1017.1 1917.1C1016.6 1914.7 1014.4 1913.6 1011.9 1914.9 1010.3 1915.5 1009.2 1917.7 1010.5 1920.2L1016.5 1935.1 989.5 1931.8C987.2 1931.5 985.4 1932.8 985.1 1935.2S986.2 1939.2 988.5 1939.5L1015.6 1942.8 1006.1 1955.7C1004.3 1957.9 1004.8 1960.3 1006.3 1961.2 1008.4 1963.1 1010.8 1962.6 1011.9 1960.3L1024.8 1943.9 1045.7 1946.4 1019.6 1980.1C1018.6 1982.3 1019.1 1984.7 1020.5 1985.7 1022.7 1987.5 1025.1 1987 1026.1 1984.8L1054.2 1947.5 1086.6 1951.4 1061.4 1978.1 1098.2 1978.7 1078.6 2004.5 1032.2 1998.9C1029.9 1998.6 1028.1 2000.7 1027.9 2002.3 1027.6 2004.6 1029 2006.3 1031.3 2006.6L1073.8 2011.7 1060.7 2029 1039.9 2026.4C1037.5 2026.1 1035.8 2027.5 1035.5 2029.8 1035.3 2031.4 1036.6 2033.9 1038.9 2034.1L1055.1 2036.1 1039.2 2057.7C1037.4 2059.8 1037.9 2062.2 1040.1 2063.3 1041.5 2064.2 1043.9 2064.5 1044.9 2062.3L1061.6 2040.8 1068.4 2055.8C1069 2057.4 1071.2 2058.4 1072.9 2057.9 1074.5 2057.3 1075.5 2055.8 1075.6 2055.1 1075.7 2054.3 1075.7 2053.5 1075.1 2052.6L1067.2 2033.7 1079.5 2016.4 1095.8 2056C1097.2 2057.7 1099.4 2058.7 1101 2058.2 1102.7 2057.6 1103.6 2056.1 1103.8 2054.6 1103.9 2053.8 1103.9 2053.8 1103.2 2052.9L1085.1 2009.2 1104.6 1983.4 1115.2 2019.1 1134 1986.9 1146.8 2016.7 1118.7 2054.8C1117.7 2056.3 1117.4 2058.6 1119.6 2060.4 1121 2061.4 1123.4 2060.9 1125.2 2059.5L1150.5 2025 1158.3 2044.7 1146.1 2061.3C1144.4 2062.6 1144.9 2065 1147 2066.9 1148.4 2067.8 1150.8 2067.3 1152.6 2066L1162 2053 1173.1 2077.9C1173.6 2080.3 1175.9 2080.6 1178.3 2080.1 1179.2 2079.4 1180.1 2077.9 1180.2 2077.2 1180.3 2076.4 1180.4 2075.6 1179.7 2074.8L1169.4 2050 1185.6 2052C1187.9 2052.3 1189.8 2050.1 1190 2048.6L1190 2048.6C1190.2 2046.3 1188.9 2044.5 1186.6 2044.3L1165.7 2041.7 1157.9 2022 1199.6 2027C1201.9 2027.3 1203.7 2026 1204 2023.7S1202.9 2019.6 1200.6 2019.3L1154.2 2013.7 1141.4 1983.9 1177.2 1992.2 1159.2 1960.2 1191.6 1964.2 1209.9 2007.1C1211.1 2009.6 1213.5 2009.9 1215.1 2009.3 1216.7 2008.8 1217.8 2006.5 1217.3 2004.1L1200.9 1965.3 1220.9 1967.7 1229.6 1986.8C1230.1 1989.2 1232.3 1990.3 1234.8 1989 1236.4 1988.4 1237.5 1986.2 1237 1983.8L1230.2 1968.9 1257.2 1972.1C1259.5 1972.4 1261.3 1971.1 1261.6 1968.8S1260.5 1964.7 1258.2 1964.4L1231.1 1961.1 1240.5 1948.2C1241.4 1947.5 1241.5 1946.7 1241.6 1946 1241.8 1944.4 1241.1 1943.5 1240.4 1942.7 1238.3 1940.9 1235.9 1941.3 1234.8 1943.6L1221.9 1960 1201 1957.5 1227.1 1923.8C1227.1 1923 1227.2 1922.3 1227.3 1921.5 1227.5 1920 1226.8 1919.1 1226.2 1918.2 1224 1916.4 1221.6 1916.9 1220.6 1919.1L1192.5 1956.4 1160.1 1952.5 1185.3 1925.8 1148.5 1925.2 1168.1 1899.4 1214.5 1905.1C1216.8 1905.3 1218.6 1903.2 1218.8 1901.7 1219.1 1899.3 1217.7 1897.6 1215.4 1897.3L1173.7 1892.3 1186 1875 1206.8 1877.5C1209.1 1877.8 1210.9 1876.4 1211.2 1874.1S1210.1 1870 1207.8 1869.8L1191.6 1867.8 1207.5 1846.2C1208.4 1845.5 1208.5 1844.8 1208.6 1844 1208.6 1843.2 1208.1 1841.6 1206.6 1840.6 1205.2 1839.7 1202.8 1839.4 1201.8 1841.6ZM1167.9 1933.1L1147.3 1954.9 1162.1 1981 1132.4 1974.2 1117.5 1999.8 1108.5 1971.3 1078.7 1970.8 1099.4 1949 1084.6 1923 1113.5 1929.6 1129.2 1904.1 1137.5 1932.5 1167.9 1933.1Z" fill="rgba(51, 51, 51, 1)"></path><path d="M1187.9 1091.1L1173.3 1063.7 1192.1 1063.5C1194 1063.7 1196.2 1061.9 1196.8 1059.1 1196.2 1056.7 1194.4 1054.5 1191.9 1055.2L1168.4 1054.5 1156.1 1033.6 1205 1035C1207.5 1034.4 1209.6 1032.6 1209.8 1030.6 1209.6 1027.4 1207.8 1025.3 1205.4 1025.9L1151.2 1024.5 1133.4 992 1175.7 997.7 1150.8 963 1187.9 963.5 1214.5 1010.7C1214.1 1011.4 1214.8 1011.9 1215.6 1012.3 1217.1 1013.3 1219.1 1013.4 1220.8 1012.3 1222.4 1011.3 1223.1 1008.5 1222.4 1006.1L1198.3 963.5 1222.5 964.6 1234.1 985.1C1234.4 986.3 1235.1 986.8 1235.9 987.2 1236.6 987.7 1238.6 987.8 1240.3 986.8 1242 985.7 1242.6 982.9 1241.5 981.3L1232.9 964.6 1264 964.7C1266.7 965.3 1268.1 963 1268.7 960.3 1268.8 958.3 1267 956.1 1263.8 956.3L1233.2 955.5 1242.8 939.5C1244.2 937.2 1242.8 934.3 1241.3 933.4 1239 932 1236.5 932.6 1235.2 934.9L1222.8 955.5 1198.6 954.4 1223.3 913.3C1224.7 911 1224.1 908.5 1221.8 907.2 1220.3 906.2 1217.1 906.4 1215.7 908.7L1188.2 954.4 1151.2 953.9 1176.5 920.4 1134.7 924.3 1154 892.3 1207.3 893.3C1210.5 893.1 1211.9 890.8 1212 888.9 1212.2 886.9 1210.4 884.7 1207.6 884.1L1159 883.9 1171.4 863.4 1195.3 863.2C1198 863.8 1200.2 862 1200 858.8 1200.2 856.8 1198.4 854.7 1195.2 854.8L1176.9 854.2 1192.9 827.6C1194.3 825.3 1193.7 822.8 1191.4 821.5S1186.7 820.7 1185.3 823L1169.2 849.6 1160.1 833.8C1158.7 830.9 1156 830.3 1154.3 831.3 1151.4 832.7 1150.8 835.4 1152.6 837.6L1163.7 858.8 1151.4 879.3 1128.4 836.5C1126.6 834.4 1123.8 833.7 1122.2 834.8 1119.3 836.2 1118.6 838.9 1120.5 841.1L1146.3 887.7 1127.1 919.7 1111 881 1093.3 919.1 1075.5 886.6 1102.9 840.9C1104.3 838.6 1102.9 835.7 1101.4 834.8 1099.1 833.4 1096.7 834 1095.3 836.3L1070.1 878.2 1058.3 856.5 1070.6 836C1072 833.7 1071.4 831.3 1069.1 829.9 1067.6 829 1064.4 829.1 1063 831.4L1053.4 847.4 1038.3 820.7C1037 817.8 1034.2 817.2 1032.1 819 1030.4 820.1 1029 822.4 1030.9 824.5L1045.5 852 1026.7 852.1C1024.7 851.9 1022.6 853.8 1022.4 855.7 1022.3 857.7 1023.3 859.4 1024.1 859.9 1024.9 860.3 1025.6 860.8 1026.9 860.5L1050.3 861.1 1062.7 882 1013.7 880.6C1011.3 881.2 1009.1 883 1009 885 1008.8 887 1009.9 888.7 1011.4 889.6 1012.2 890 1012.2 890 1013.4 889.7L1067.5 891.2 1085.3 923.6 1043.1 918 1067.9 952.6 1030.9 952.1 1004.2 905C1003.2 903.3 1000.9 901.9 998 903.3 996.3 904.4 995.7 907.1 996.3 909.5L1020.5 952.1 996.3 951 984.7 930.6C984.1 928.1 981.4 927.5 978.5 928.9 976.8 929.9 976.2 932.7 976.8 935.1L985.9 951 954.8 951C952.1 950.3 950.7 952.6 950.1 955.4 950.4 956.6 951.5 958.3 952.2 958.7 953 959.2 953.7 959.6 955 959.3L985.6 960.1 976 976.1C974.6 978.4 976 981.3 977.5 982.2L977.5 982.2C979.8 983.6 982.2 983 983.6 980.7L996 960.1 1020.2 961.2 995.5 1002.4C994.1 1004.7 994.7 1007.1 997 1008.5S1001.7 1009.2 1003.1 1007L1030.6 961.2 1067.6 961.7 1042.3 995.3 1084 991.3 1064.8 1023.3 1011.4 1022.4C1008.2 1022.5 1006.9 1024.8 1006.7 1026.8 1006.6 1028.8 1008.4 1030.9 1011.1 1031.5L1059.3 1032.5 1047.4 1052.3 1023.5 1052.4C1020.7 1051.8 1018.6 1053.6 1018.7 1056.8 1018.6 1058.8 1020.4 1060.9 1023.1 1061.5L1041.9 1061.4 1025.9 1088.1C1024.5 1090.4 1025.1 1092.8 1027.4 1094.2S1032.1 1094.9 1033.5 1092.7L1049.5 1066 1058.6 1081.9C1059 1083.1 1059.7 1083.5 1060.5 1084 1062 1084.9 1063.2 1084.6 1064.4 1084.3 1067.3 1082.9 1067.9 1080.2 1066.1 1078.1L1055 1056.9 1067.4 1036.3 1090.4 1079.1C1091.1 1079.6 1091.9 1080.1 1092.6 1080.5 1094.2 1081.4 1095.4 1081.1 1096.6 1080.8 1099.5 1079.5 1100.1 1076.7 1098.3 1074.6L1072.4 1027.9 1091.7 995.9 1107.8 1034.6 1125.5 996.6 1143.3 1029 1115.8 1074.7C1114.4 1077 1115.8 1079.9 1117.3 1080.8 1119.6 1082.2 1122.1 1081.6 1123.4 1079.3L1148.2 1038.2 1160.5 1059.1 1148.1 1079.7C1146.8 1081.9 1147.4 1084.4 1149.7 1085.8S1154.4 1086.5 1155.8 1084.2L1165.4 1068.2 1180.4 1094.9C1180.7 1096.2 1181.5 1096.6 1182.3 1097.1 1183 1097.5 1185 1097.7 1186.7 1096.6 1188.4 1095.6 1189.7 1093.3 1187.9 1091.1ZM1108.3 1013.2L1095.2 981.4 1061 984.8 1081.9 956.9 1062.2 929.4 1096.1 933.3 1110.5 902.5 1123.6 934.2 1157.7 930.9 1137.3 958 1156.6 986.2 1123.1 981.6 1108.3 1013.2Z" fill="rgba(51, 51, 51, 1)"></path><path d="M261.7 1445.3L276.1 1463.6 262.3 1466.2C260.8 1466.3 259.5 1468 259.4 1470.1 260.2 1471.8 261.8 1473.1 263.5 1472.4L280.9 1469.7 292.8 1483.5 256.5 1489C254.8 1489.7 253.4 1491.4 253.6 1492.8 254.1 1495.2 255.8 1496.5 257.5 1495.8L297.6 1489.6 315.1 1511.2 283.2 1512.6 306.1 1534.9 278.7 1539.5 252.7 1508.2C253 1507.6 252.4 1507.4 251.7 1507.1 250.5 1506.6 249 1506.8 247.9 1507.8 246.8 1508.8 246.7 1510.9 247.5 1512.6L271 1540.8 253 1543.3 241.7 1529.7C241.3 1528.8 240.7 1528.6 240.1 1528.4 239.5 1528.1 238 1528.3 236.9 1529.3 235.8 1530.3 235.7 1532.4 236.7 1533.5L245.3 1544.6 222.4 1548.7C220.3 1548.7 219.6 1550.5 219.5 1552.6 219.6 1554.1 221.3 1555.4 223.6 1554.9L246.3 1551.4 241.3 1564.5C240.6 1566.4 242 1568.3 243.3 1568.8 245.2 1569.5 246.9 1568.7 247.6 1566.9L254 1550 272 1547.6 259.2 1581.3C258.5 1583.1 259.3 1584.9 261.2 1585.6 262.4 1586.1 264.7 1585.5 265.5 1583.6L279.7 1546.3 307.1 1541.7 292.8 1569.8 323.1 1561.3 313.2 1587.5 273.7 1593.9C271.3 1594.4 270.6 1596.3 270.8 1597.8 270.9 1599.3 272.6 1600.6 274.7 1600.7L310.6 1594.4 304.2 1611.2 286.5 1614.5C284.4 1614.4 283.1 1616 283.6 1618.4 283.8 1619.8 285.4 1621.2 287.8 1620.6L301.4 1618.7 293.1 1640.5C292.4 1642.4 293.1 1644.1 295 1644.8S298.6 1644.7 299.3 1642.9L307.6 1621 316.4 1631.5C317.8 1633.5 319.9 1633.6 321 1632.6 323 1631.2 323.1 1629.1 321.4 1627.7L310.4 1613.6 316.8 1596.7 339.5 1625.3C341.1 1626.6 343.2 1626.7 344.3 1625.7 346.3 1624.3 346.4 1622.2 344.7 1620.9L319.4 1589.9 329.4 1563.7 346.4 1590.2 354.4 1559.7 371.9 1581.3 357.7 1618.7C357 1620.6 358.4 1622.5 359.6 1623 361.5 1623.7 363.2 1622.9 363.9 1621L376.9 1586.8 388.6 1601.2 382.2 1618C381.5 1619.9 382.3 1621.6 384.1 1622.3 385.4 1622.8 387.7 1622.2 388.4 1620.4L393.4 1607.3 408.1 1625C409.5 1626.9 411.6 1627 412.9 1625.4 414 1624.4 414.7 1622.5 413.1 1621.2L398.6 1602.9 412.5 1600.3C414 1600.1 415.3 1598.5 415.1 1597 415 1595.5 414 1594.4 413.4 1594.2 412.7 1593.9 412.1 1593.7 411.2 1594.1L393.8 1596.8 382 1583 418.3 1577.5C420 1576.7 421.3 1575.1 421.2 1573.6 421 1572.1 420 1571 418.8 1570.6 418.1 1570.3 418.1 1570.3 417.3 1570.7L377.1 1576.9 359.7 1555.3 391.6 1553.8 368.7 1531.6 396.1 1527 422 1558.2C423 1559.3 424.9 1560.1 426.8 1558.7 427.9 1557.7 428 1555.5 427.3 1553.8L403.7 1525.6 421.8 1523.2 433 1536.8C433.8 1538.5 435.9 1538.6 437.9 1537.2 439 1536.2 439 1534.1 438.3 1532.3L429.4 1521.8 452.4 1517.7C454.5 1517.8 455.2 1515.9 455.3 1513.8 454.9 1513 453.9 1511.9 453.3 1511.6 452.6 1511.4 452 1511.2 451.2 1511.6L428.4 1515 433.4 1502C434.1 1500.1 432.7 1498.1 431.5 1497.7L431.5 1497.7C429.6 1497 427.9 1497.7 427.2 1499.6L420.8 1516.4 402.8 1518.8 415.5 1485.2C416.2 1483.3 415.5 1481.6 413.6 1480.9S410 1481 409.3 1482.8L395.1 1520.2 367.7 1524.8 381.9 1496.7 351.6 1505.1 361.6 1478.9 401.1 1472.6C403.4 1472 404.1 1470.2 404 1468.7 403.8 1467.2 402.2 1465.9 400.1 1465.8L364.4 1471.5 370.6 1455.3 388.2 1452C390.3 1452.1 391.6 1450.4 391.1 1448.1 391 1446.6 389.3 1445.3 387.2 1445.2L373.4 1447.8 381.7 1426C382.4 1424.1 381.6 1422.4 379.8 1421.7S376.2 1421.7 375.5 1423.6L367.2 1445.4 358.3 1434.9C357.9 1434.1 357.3 1433.8 356.7 1433.6 355.4 1433.1 354.6 1433.5 353.7 1433.9 351.8 1435.3 351.7 1437.4 353.3 1438.7L364.3 1452.9 357.9 1469.7 335.3 1441.1C334.7 1440.9 334 1440.7 333.4 1440.4 332.2 1440 331.3 1440.4 330.4 1440.7 328.5 1442.1 328.4 1444.2 330 1445.6L355.3 1476.6 345.4 1502.8 328.3 1476.3 320.3 1506.8 302.9 1485.2 317.1 1447.8C317.8 1445.9 316.4 1444 315.1 1443.5 313.3 1442.8 311.5 1443.5 310.8 1445.4L298 1479.1 286.2 1465.3 292.6 1448.5C293.3 1446.6 292.5 1444.9 290.6 1444.2S287 1444.2 286.3 1446.1L281.4 1459.2 266.7 1441.5C266.3 1440.6 265.7 1440.4 265.1 1440.1 264.4 1439.9 262.9 1440.1 261.9 1441.1 260.8 1442.1 260 1444 261.7 1445.3ZM330.8 1492.2L344.7 1513.9 369.5 1506.9 357.8 1530.3 376 1547.9 350.4 1549.6 343.9 1574.2 330 1552.6 305.3 1559.5 316.8 1536.8 298.7 1518.6 324.1 1517.5 330.8 1492.2Z" fill="rgba(51, 51, 51, 1)"></path><path d="M1469.6 1249.5L1454.9 1254.6 1456.3 1245.3C1456.5 1244.3 1455.8 1243.1 1454.5 1242.6 1453.2 1242.7 1452 1243.5 1452.1 1244.7L1450 1256.3 1438.7 1260.7 1443.2 1236.7C1443.1 1235.4 1442.4 1234.2 1441.4 1234 1439.8 1233.8 1438.6 1234.6 1438.7 1235.8L1433.8 1262.4 1416.4 1268.7 1422.5 1248.3 1403.4 1257.9 1406.5 1239.6 1431.9 1230.1C1432.2 1230.4 1432.5 1230.1 1432.8 1229.7 1433.4 1229 1433.6 1228.1 1433.2 1227.2 1432.8 1226.2 1431.5 1225.7 1430.2 1225.8L1407.4 1234.5 1409.8 1222.6 1420.8 1218.5C1421.4 1218.4 1421.7 1218.1 1422 1217.7 1422.2 1217.4 1422.5 1216.4 1422.1 1215.5 1421.7 1214.6 1420.4 1214.1 1419.5 1214.5L1410.6 1217.5 1413 1202.1C1413.5 1200.8 1412.5 1200 1411.2 1199.5 1410.2 1199.2 1409 1200 1408.8 1201.6L1406.1 1216.6 1398.9 1210.6C1397.9 1209.8 1396.4 1210.2 1395.8 1210.9 1394.9 1211.9 1395 1213.2 1396.1 1214.1L1405.3 1221.8 1402.9 1233.6 1384.5 1218.2C1383.4 1217.4 1382.2 1217.5 1381.3 1218.5 1380.8 1219.2 1380.6 1220.8 1381.6 1221.7L1402.1 1238.8 1398.9 1257 1384.3 1241.9 1383.1 1262.9 1368.7 1250.9 1373.3 1224.6C1373.5 1223 1372.5 1222.1 1371.5 1221.9 1370.6 1221.7 1369.4 1222.4 1368.9 1223.7L1365 1247.7 1355.8 1240 1357.6 1228.2C1358.1 1226.9 1357.4 1225.7 1355.8 1225.5 1354.8 1225.3 1353.6 1226 1353.4 1227.6L1351.7 1236.6 1339.8 1226.6C1338.7 1225.8 1337.5 1225.9 1336.6 1226.9S1335.9 1229.2 1336.9 1230L1348.8 1240 1340.3 1243.3C1338.8 1243.8 1338.3 1245.1 1338.6 1246 1339.1 1247.5 1340.4 1248 1341.6 1247.3L1352.9 1243.4 1362.1 1251.1 1339.2 1259.2C1338 1259.9 1337.5 1261.2 1337.9 1262.1 1338.3 1263.7 1339.6 1264.2 1340.8 1263.5L1365.9 1254.3 1380.2 1266.3 1359.8 1271.2 1377.3 1282.9 1359.8 1289.2 1339.4 1272.1C1338.4 1271.2 1336.8 1271.7 1336.3 1272.4 1335.4 1273.4 1335.5 1274.7 1336.5 1275.5L1355.3 1291.2 1343.7 1295.4 1334.5 1287.7C1333.4 1286.8 1332.2 1286.9 1331.3 1288 1330.8 1288.6 1330.6 1290.2 1331.6 1291.1L1338.8 1297.1 1324.4 1302.5C1322.9 1302.9 1322.4 1304.2 1323.1 1305.4 1323.5 1306.3 1324.5 1307.2 1325.7 1306.4L1340.4 1301.4 1339 1310.6C1338.8 1311.6 1339.5 1312.8 1340.5 1313 1341.5 1313.2 1342.4 1312.8 1342.7 1312.5 1343 1312.2 1343.2 1311.8 1343.2 1311.2L1345.3 1299.7 1356.6 1295.2 1352.1 1319.2C1352.2 1320.5 1352.9 1321.7 1353.9 1321.9 1354.9 1322.2 1355.8 1321.8 1356.4 1321.1 1356.7 1320.7 1356.7 1320.7 1356.6 1320.1L1361.5 1293.5 1378.9 1287.2 1372.8 1307.6 1391.9 1298 1388.8 1316.3 1363.4 1325.8C1362.5 1326.2 1361.6 1327.2 1362.1 1328.8 1362.5 1329.7 1363.8 1330.2 1365.1 1330.1L1387.9 1321.4 1385.5 1333.3 1374.5 1337.4C1373.3 1337.6 1372.8 1338.9 1373.2 1340.4 1373.6 1341.3 1374.9 1341.8 1376.2 1341.7L1384.7 1338.4 1382.3 1353.8C1381.8 1355.1 1382.8 1356 1384.1 1356.5 1384.7 1356.4 1385.7 1356 1385.9 1355.7 1386.2 1355.3 1386.5 1355 1386.5 1354.4L1389.2 1339.3 1396.4 1345.3C1397.4 1346.1 1398.9 1345.7 1399.5 1345L1399.5 1345C1400.4 1344 1400.3 1342.7 1399.2 1341.9L1390 1334.2 1392.4 1322.3 1410.8 1337.7C1411.9 1338.5 1413.1 1338.4 1414 1337.4S1414.7 1335.1 1413.7 1334.3L1393.2 1317.2 1396.4 1298.9 1411 1314 1412.2 1293.1 1426.6 1305.1 1422 1331.3C1421.8 1332.9 1422.8 1333.8 1423.8 1334 1424.7 1334.2 1425.9 1333.5 1426.5 1332.2L1430.7 1308.5 1439.5 1315.9 1437.7 1327.7C1437.2 1329 1437.9 1330.2 1439.5 1330.4 1440.5 1330.6 1441.7 1329.9 1442.2 1328.6L1443.6 1319.3 1455.5 1329.3C1456.6 1330.1 1457.8 1330 1458.7 1329S1459.4 1326.7 1458.4 1325.9L1446.5 1315.9 1455 1312.6C1455.6 1312.6 1455.9 1312.2 1456.2 1311.9 1456.8 1311.2 1456.7 1310.6 1456.7 1309.9 1456.2 1308.4 1454.9 1307.9 1453.7 1308.6L1442.4 1312.5 1433.2 1304.8 1456.1 1296.7C1456.4 1296.4 1456.7 1296.1 1457 1295.7 1457.5 1295 1457.5 1294.4 1457.4 1293.8 1457 1292.3 1455.7 1291.7 1454.5 1292.5L1429.4 1301.6 1415.1 1289.7 1435.5 1284.7 1418 1273 1435.5 1266.7 1455.9 1283.8C1456.9 1284.7 1458.5 1284.2 1459 1283.5 1459.9 1282.5 1459.8 1281.3 1458.8 1280.4L1440.4 1265 1451.6 1260.5 1460.8 1268.2C1461.9 1269.1 1463.1 1269 1464 1268S1464.7 1265.7 1463.7 1264.8L1456.5 1258.8 1470.9 1253.5C1471.5 1253.4 1471.8 1253.1 1472.1 1252.7 1472.4 1252.4 1472.6 1251.4 1472.2 1250.5 1471.8 1249.6 1470.8 1248.7 1469.6 1249.5ZM1424.9 1282.8L1408.2 1286.8 1407.2 1303.9 1395.1 1291.4 1380 1299.1 1384.5 1282.6 1370.4 1273.1 1387.1 1269.1 1388.1 1252 1399.9 1264.2 1415.3 1256.8 1410.5 1273 1424.9 1282.8Z" fill="rgba(51, 51, 51, 1)"></path><path d="M881.7 231.9L909.3 246.4 893.8 257C892.1 258 891.4 260.7 892.4 263.3 894.3 265 897 265.7 898.7 263.9L918.4 251.2 940.4 261.5 899.1 287.9C897.4 289.8 896.7 292.5 897.7 294.2 899.6 296.8 902.3 297.5 904 295.6L949.5 266.4 982.5 283.2 944.4 302.3 984.4 316.9 953.5 337.4 905 313.4C905 312.5 904.1 312.5 903.2 312.6 901.4 312.7 899.7 313.7 898.9 315.5 898.1 317.3 899.1 319.9 901 321.6L945 343.2 924.3 355.9 903.2 345.5C902.3 344.7 901.4 344.7 900.5 344.8 899.6 344.8 897.9 345.8 897.1 347.6 896.3 349.5 897.4 352.1 899.2 352.9L915.7 361.7 890 379.2C887.4 380.2 887.5 382.9 888.6 385.5 889.6 387.2 892.3 388 894.8 386.1L920.6 369.5 921.7 388.1C921.8 390.8 924.6 392.4 926.3 392.3 929 392.2 930.7 390.3 930.5 387.6L929.2 363.7 949.8 350.9 952.5 398.8C952.7 401.5 954.6 403.2 957.2 403 959 402.9 961.6 401 961.4 398.3L958.4 345.1 989.3 324.7 987.2 366.6 1019.6 339.9 1021.6 377.2 977 406.4C974.4 408.3 974.6 411 975.6 412.7 976.5 414.4 979.3 415.2 981.9 414.1L1022.2 386.9 1023.5 410.9 1003.8 424.5C1001.2 425.5 1000.5 428.2 1002.4 430.8 1003.4 432.5 1006.1 433.2 1008.7 431.3L1024.1 421.5 1025.9 452.6C1026 455.3 1027.9 456.9 1030.6 456.8S1034.9 454.8 1034.8 452.1L1033 421 1049.5 429C1052.2 430.6 1054.9 429.6 1055.6 427.8 1057.3 425 1056.2 422.4 1053.5 421.7L1032.4 410.4 1031.1 386.4 1074.2 408.9C1076.9 409.7 1079.5 408.6 1080.3 406.8 1081.9 404.1 1080.9 401.4 1078.2 400.7L1030.5 376.7 1028.4 339.4 1063.5 362.3 1056.8 320.9 1089.8 337.7 1092.8 391C1092.9 393.6 1095.7 395.3 1097.4 395.2 1100.1 395 1101.8 393.1 1101.6 390.5L1098.9 341.7 1120.9 352.9 1122.2 376.9C1122.4 379.5 1124.3 381.2 1126.9 381.1 1128.7 381 1131.3 379 1131.1 376.4L1130.1 357.7 1157.5 371.3C1160.3 372.9 1162.9 371.9 1163.6 369.2 1164.4 367.4 1164.3 364.7 1161.6 364L1134 349.5 1149.5 338.8C1151.2 337.8 1151.9 335.1 1151 333.4 1150 331.7 1148.1 330.9 1147.3 330.9 1146.4 331 1145.5 331 1144.6 332L1124.9 344.7 1102.9 334.3 1144.2 308C1145.9 306.1 1146.6 303.4 1145.6 301.7 1144.6 299.9 1142.8 299.1 1141 299.2 1140.1 299.3 1140.1 299.3 1139.3 300.2L1093.8 329.5 1060.8 312.6 1098.9 293.6 1058.9 278.9 1089.8 258.5 1138.3 282.5C1140.1 283.3 1142.8 283.1 1144.4 280.4 1145.2 278.5 1144.2 275.9 1142.3 274.2L1098.3 252.7 1119 239.9 1140.1 250.3C1141.9 252 1144.5 251 1146.2 248.2 1147 246.4 1145.9 243.8 1144.1 242.1L1127.6 234.1 1153.3 216.6C1155.9 215.6 1155.8 212.9 1154.7 210.3 1153.8 209.5 1152 208.7 1151.1 208.8 1150.2 208.8 1149.3 208.9 1148.5 209.8L1122.7 226.4 1121.6 207.7C1121.5 205.1 1118.7 203.5 1117 203.6L1117 203.6C1114.3 203.7 1112.6 205.6 1112.8 208.2L1114.1 232.2 1093.5 244.9 1090.8 197C1090.6 194.3 1088.8 192.7 1086.1 192.8S1081.8 194.8 1081.9 197.5L1084.9 250.8 1054 271.2 1056.1 229.2 1023.8 256 1021.7 218.7 1066.3 189.5C1068.9 187.6 1068.7 184.9 1067.7 183.2 1066.8 181.4 1064 180.7 1061.4 181.7L1021.1 208 1019.8 185 1039.5 171.4C1042.1 170.4 1042.8 167.6 1040.9 165.1 1039.9 163.4 1037.2 162.6 1034.6 163.7L1019.2 174.3 1017.4 143.3C1017.3 140.6 1015.4 138.9 1012.7 139.1S1008.4 141.1 1008.6 143.8L1010.3 174.8 993.8 166.8C992.9 166 992 166 991.1 166.1 989.3 166.2 988.5 167.1 987.7 168.1 986 170.8 987.1 173.4 989.8 174.2L1010.9 185.5 1012.2 209.4 969.1 186.9C968.2 187 967.4 187 966.5 187.1 964.7 187.2 963.9 188.1 963 189 961.4 191.8 962.4 194.4 965.1 195.2L1012.8 219.2 1014.9 256.5 979.8 233.5 986.5 275 953.5 258.1 950.6 204.9C950.4 202.2 947.6 200.6 945.9 200.7 943.2 200.8 941.5 202.7 941.7 205.4L944.4 253.3 922.4 243 921.1 219C920.9 216.3 919.1 214.7 916.4 214.8S912 216.8 912.2 219.5L913.2 238.1 885.8 224.5C884.8 223.7 883.9 223.7 883.1 223.8 882.2 223.8 880.4 224.8 879.7 226.7 878.9 228.5 879 231.1 881.7 231.9ZM991.5 251.5L1020.1 270.4 1046.5 248.5 1044.9 283.3 1076.7 294.8 1046.4 310.8 1051.9 344.3 1023.2 325.4 996.8 347.4 998.5 313.5 966.6 301 996.9 286 991.5 251.5Z" fill="rgba(51, 51, 51, 1)"></path><path d="M182.9 493L206.9 478.8 207.8 497.5C207.7 499.5 209.7 501.5 212.4 502 214.8 501.3 216.9 499.4 217 497.4L216.3 472.7 238.7 459.7 239.6 509.8C239.9 513 241.8 515.1 244.2 514.4 247 514.9 249 512.9 248.7 509.7L247.6 454.4 267.6 442 315.1 468.1 315.9 488.8 265.1 518.7C264.7 519.5 264.3 520.3 263.8 521 263.4 521.8 263.3 523.8 263.7 525 265.2 527.9 267.9 528.4 270 526.4L316.4 499.1 316.6 524.6 293.4 539.3C292.6 538.8 292.2 539.6 291.8 540.4 290.9 541.9 290.8 543.9 292 545.6 293.1 547.2 295.9 547.7 298.3 547L317 535 317.8 566.8C317.8 568.8 319.7 570.9 322.4 571.4 324.8 570.7 326.9 568.7 327 566.8L326.1 536.9 342.5 545.8C344.8 547.1 347.6 545.6 348.5 544.1 349.8 541.7 349.5 538.5 347.2 537.3L326.1 525.7 325.9 500.3 369.5 524.2C371.9 525.5 374.3 524.7 375.6 522.4 376.8 520.1 376.1 517.7 373.8 516.4L325.5 489.9 324.3 468 371.1 439.9 389 449.7 390.5 506.3C390 509 392.7 511.5 395.1 510.8 397.9 511.3 399.1 509 399.6 506.2L398.4 454.8 421 467.2 421.2 492.7C421.1 494.7 423.8 497.2 425.8 497.2S430.3 494.6 430.8 491.8L430.3 472.3 457.6 487.3C460 488.5 462.8 487.1 464.1 484.7 464.9 483.2 464.7 480 462.3 478.7L435 463.8 452.1 452.9C453.8 451.7 455 449.4 453.6 446.5 452.4 444.9 448.9 444 447.2 445.1L425.7 458.6 403 446.3 447 419.6C449.1 417.7 450.3 415.4 448.9 412.6 447.7 410.9 444.2 410 442.5 411.1L393.7 441.1 375.8 431.3 374.2 376.8 393.3 365.9 441.6 392.4C444 393.7 446.4 393 447.7 390.6 449 388.3 448.7 385.1 446.3 383.8L402.7 359.9 424.3 346.4 445.3 357.9C447.7 359.2 450.1 358.5 451.3 356.2 452.6 353.8 451.9 351.4 449.6 350.1L433.2 341.2 458.8 325.8C460.5 324.7 461.4 321.1 460.3 319.5 458.3 317.4 456 316.2 454 318.1L427.1 333.8 426.7 312.3C426 309.9 424.1 307.8 422.1 307.7 420.1 307.7 418.5 308.8 417.6 310.4 417.6 310.4 417.2 311.1 417.6 312.3L417.7 339.8 396.2 353.3 394.2 299.5C394.7 296.8 392.8 294.7 389.6 295 388.4 295.3 387.2 295.7 386.3 297.3 385.9 298 385.4 298.8 385 299.6L387.2 358.6 369.3 369 321.8 343 321.4 319.5 368.6 290.6C371.5 289.2 372 286.4 370.1 284.3 369.4 281.9 366.6 281.4 363.8 282.9L321 309.2 320 283.3 341.1 270.5C342.8 269.4 343.3 266.6 342.6 264.2 340.7 262.1 338.3 260.9 336.3 262.8L320 272.1 319.1 244.2C319.6 241.5 317.2 240.2 314.4 239.7 313.2 240 311.6 241.2 310.8 242.7 310.8 242.7 310.3 243.5 309.9 244.3L310.8 274.2 291.3 263.5C289.7 262.6 286.5 262.9 285.3 265.3 284 267.6 285.5 270.4 287 271.3L311.2 284.5 312.2 310.4 264.7 284.4C262.3 283.1 259.5 284.6 258.2 286.9S257.6 291.7 260 293L312.2 321.6 312.6 343.1 265.8 371.2 245.5 360.1 244.5 302.7C243.8 300.3 241.9 298.3 239.1 297.8 237.9 298.1 236.3 299.2 235.4 300.8 235 301.6 234.6 302.4 234.9 303.6L236.2 354.9 213.6 342.6 212.5 316.7C212.6 314.7 210.7 312.6 207.9 312.1 205.5 312.8 203.5 314.7 203.4 316.7L204.2 337.4 179.3 323.8C177.7 322.9 174.1 324 173.2 325.6 171.9 327.9 173 331.5 174.6 332.4L199.5 346 182.1 355.7C181.6 356.5 181.2 357.3 180.8 358.1 179.9 359.6 179.8 361.6 180.2 362.8 182.1 364.9 184.9 365.4 187.3 364.7L208.9 351.1 231.5 363.5 187.5 390.1C184.7 391.6 184.2 394.4 185.3 396 186.8 398.9 189.6 399.4 192 398.6L240.8 368.6 261.1 379.7 262.7 434.3 244.4 445.5 192.1 417C189.8 415.7 187.4 416.4 186.1 418.7 184.8 421.1 185.5 423.5 187.8 424.7L235.4 450.8 213 463.9 188.9 450.6C187.3 449.8 183.7 450.8 182.4 453.2 181.1 455.5 182.6 458.4 184.2 459.2L203.7 469.9 178 485.2C177.6 486 177.6 486 177.2 486.8 176.3 488.4 176.3 490.4 176.6 491.6 178.5 493.6 181.3 494.1 182.9 493ZM270.5 384.9L270.7 378.9 275.2 376.3 313 353.4 317.5 350.8 322.2 353.4 360.4 374.3 365.1 376.8 365.3 382 366.4 426.2 366.6 431.4 361.7 434.8 324.3 456.9 319.4 460.3 314.7 457.7 276.5 436.8 271.8 434.2 272 428.3 270.5 384.9Z" fill="rgba(51, 51, 51, 1)"></path><path d="M322.9 1005.2L328.9 974.7 343.5 986.4C345 987.8 347.8 987.7 350 986 351.1 983.7 351 980.9 348.7 979.8L330.9 964.5 334.5 940.5 371.6 972.5C373.9 973.6 376.7 973.5 378 972.1 379.9 969.5 379.9 966.7 377.6 965.6L336.5 930.4 343.2 893.9 372.3 925 374.9 882.4 403.4 906.2 394.3 959.6C393.5 959.9 393.8 960.7 394.1 961.5 394.7 963.2 396.1 964.6 398.1 964.8 400.1 965 402.3 963.3 403.3 961L411.4 912.7 429.5 928.9 425.6 952C425.1 953.2 425.4 954 425.7 954.8 426 955.7 427.4 957 429.4 957.3 431.4 957.5 433.6 955.8 433.8 953.8L437.6 935.4 461.7 955C463.4 957.2 465.9 956.3 468.1 954.6 469.5 953.2 469.4 950.3 466.9 948.4L443.6 928.5 461.1 922.2C463.6 921.3 464.4 918.1 463.8 916.5 462.9 914 460.6 912.9 458.1 913.8L435.5 922 417.4 905.8 462.6 889.5C465.1 888.6 466.1 886.3 465.2 883.8 464.6 882.1 462 880.2 459.5 881.1L409.4 899.3 380.9 875.5 421.7 865.5 386.8 842.2 422 829.5 462.8 863.9C465.3 865.8 467.8 864.9 469.2 863.5 470.6 862 470.5 859.2 468.8 857L431.2 826.2 453.7 818 472.4 833C474.1 835.2 476.9 835.2 478.8 832.6 480.2 831.1 480.1 828.3 477.6 826.4L463.8 814.4 493 803.8C495.5 802.9 496.6 800.6 495.7 798.1S492.5 794.6 490 795.5L460.7 806 463.6 788C464.4 784.9 462.7 782.7 460.7 782.4 457.6 781.7 455.4 783.4 455.5 786.2L450.7 809.7 428.1 817.8 437.3 770.1C437.3 767.3 435.5 765.1 433.5 764.8 430.4 764.1 428.2 765.8 428.3 768.6L418.9 821.2 383.8 833.9 395.7 793.6 358 812 364.6 775.6 414.8 757.4C417.3 756.5 418.1 753.4 417.5 751.7 416.6 749.2 414.3 748.2 411.8 749.1L365.8 765.7 370.2 741.4 392.8 733.2C395.3 732.3 396.4 730.1 395.5 727.6 394.9 725.9 392.3 724 389.8 724.9L372.2 731.2 377.4 701C378.1 697.9 376.4 695.7 373.6 695.8 371.6 695.5 369.1 696.4 369.2 699.3L363.2 729.8 348.6 718C347.1 716.7 344.3 716.8 343 718.2 341.6 719.6 341.3 721.6 341.7 722.4 342 723.3 342.3 724.1 343.4 724.6L361.2 739.9 357.6 763.9 320.5 732C318.2 730.9 315.4 731 314.1 732.4 312.7 733.9 312.5 735.8 313.1 737.5 313.4 738.3 313.4 738.3 314.5 738.9L355.6 774.1 348.9 810.5 319.8 779.5 317.2 822 288.7 798.3 297.8 744.9C298 742.9 297.1 740.4 294 739.7 292 739.4 289.8 741.2 288.8 743.5L280.7 791.7 262.6 775.6 266.5 752.5C267.6 750.2 265.8 748 262.7 747.2 260.7 747 258.5 748.7 257.5 751L254.5 769.1 230.4 749.4C228.7 747.2 226.2 748.1 224 749.9 223.4 751 223.2 753 223.5 753.8 223.8 754.7 224.1 755.5 225.2 756L248.5 776 231 782.3C228.5 783.2 227.7 786.3 228.3 788L228.3 788C229.2 790.5 231.5 791.6 234 790.7L256.6 782.5 274.7 798.6 229.5 815C227 815.9 226 818.2 226.9 820.7S230.1 824.2 232.6 823.3L282.7 805.2 311.2 828.9 270.4 839 305.3 862.3 270.1 875 229.3 840.6C226.8 838.7 224.3 839.6 222.9 841 221.5 842.4 221.6 845.3 223.3 847.5L260.1 878.6 238.4 886.4 219.7 871.5C218 869.2 215.2 869.3 213.3 871.9 211.9 873.3 212 876.1 213.7 878.4L228.3 890.1 199.1 900.7C196.6 901.6 195.5 903.8 196.4 906.3S199.6 909.9 202.1 909L231.4 898.4 228.5 916.5C227.9 917.6 228.2 918.5 228.5 919.3 229.1 921 230.3 921.5 231.4 922 234.5 922.8 236.7 921.1 236.6 918.3L241.4 894.8 264 886.6 254.8 934.4C255.1 935.2 255.4 936.1 255.7 936.9 256.3 938.6 257.4 939.1 258.6 939.6 261.7 940.4 263.9 938.7 263.8 935.9L273.2 883.3 308.3 870.6 296.4 910.9 334.1 892.5 327.5 928.9 277.3 947C274.8 947.9 274 951.1 274.6 952.7 275.5 955.2 277.8 956.3 280.3 955.4L325.5 939.1 321.9 963.1 299.3 971.2C296.8 972.1 295.7 974.4 296.6 976.9S299.8 980.5 302.3 979.6L319.9 973.2 314.7 1003.5C314.2 1004.6 314.5 1005.4 314.8 1006.3 315.1 1007.1 316.5 1008.5 318.5 1008.7 320.5 1008.9 323 1008 322.9 1005.2ZM310.3 894.5L320.1 861.6 291.5 842.6 325.4 834.2 327.3 800.4 351.3 824.8 381.8 810 372 842.9 400.6 861.8 367.6 870 364.8 904.1 341.7 879.3 310.3 894.5Z" fill="rgba(51, 51, 51, 1)"></path><path d="M1373.4 1814.8L1375.1 1795.4 1384.9 1801.7C1385.9 1802.5 1387.7 1802.2 1388.9 1801 1389.4 1799.5 1389.2 1797.8 1387.7 1797.3L1375.6 1789 1376.2 1773.8 1401.4 1791.2C1402.9 1791.7 1404.7 1791.4 1405.4 1790.5 1406.4 1788.7 1406.2 1787 1404.7 1786.5L1376.8 1767.4 1378.5 1744.3 1398.7 1761.6 1397.4 1735 1416.7 1747.8 1414.7 1781.6C1414.2 1781.8 1414.4 1782.3 1414.7 1782.8 1415.2 1783.8 1416.1 1784.6 1417.4 1784.6 1418.6 1784.6 1419.9 1783.4 1420.4 1781.9L1422.1 1751.3 1434.5 1760.1 1433.6 1774.8C1433.4 1775.5 1433.6 1776 1433.9 1776.5 1434.1 1777 1435.1 1777.8 1436.3 1777.8 1437.6 1777.8 1438.8 1776.6 1438.8 1775.3L1439.9 1763.7 1456.2 1774.2C1457.5 1775.5 1459 1774.7 1460.2 1773.5 1461 1772.5 1460.7 1770.8 1459 1769.8L1443.2 1759 1453.7 1753.8C1455.2 1753.1 1455.4 1751.1 1454.9 1750.1 1454.2 1748.6 1452.7 1748.1 1451.2 1748.8L1437.8 1755.4 1425.4 1746.6 1452.4 1733.4C1453.8 1732.7 1454.4 1731.2 1453.6 1729.7 1453.1 1728.7 1451.4 1727.7 1449.9 1728.5L1420 1743.1 1400.7 1730.3 1425.4 1721.3 1402.1 1709.2 1423.1 1698.9 1450.7 1717.5C1452.5 1718.5 1454 1717.8 1454.7 1716.8 1455.5 1715.8 1455.2 1714.1 1454 1712.8L1428.6 1696.2 1442 1689.6 1454.6 1697.7C1455.9 1698.9 1457.6 1698.7 1458.6 1697 1459.4 1696 1459.1 1694.2 1457.4 1693.2L1448 1686.7 1465.5 1678.2C1467 1677.4 1467.5 1675.9 1466.8 1674.4S1464.5 1672.4 1463 1673.2L1445.6 1681.7 1446.2 1670.3C1446.4 1668.3 1445.2 1667.1 1444 1667 1442 1666.8 1440.7 1668 1441 1669.7L1439.6 1684.6 1426.1 1691.2 1428.6 1660.9C1428.4 1659.2 1427.1 1658 1425.9 1657.9 1423.9 1657.7 1422.7 1658.9 1422.9 1660.7L1420.6 1693.9 1399.7 1704.2 1404.4 1678.4 1382.1 1692.4 1383.8 1669.3 1413.7 1654.6C1415.2 1653.9 1415.5 1651.9 1415 1650.9 1414.3 1649.4 1412.8 1648.9 1411.3 1649.6L1383.9 1663.1 1385 1647.7 1398.5 1641.1C1400 1640.3 1400.5 1638.9 1399.7 1637.4 1399.2 1636.4 1397.5 1635.3 1396 1636.1L1385.5 1641.2 1386.7 1622.1C1387 1620.1 1385.7 1618.9 1384 1619.1 1382.7 1619.1 1381.2 1619.8 1381.5 1621.6L1379.8 1640.9 1369.9 1634.6C1368.9 1633.9 1367.2 1634.1 1366.5 1635.1 1365.7 1636.1 1365.7 1637.3 1365.9 1637.8 1366.2 1638.3 1366.4 1638.8 1367.2 1639.1L1379.3 1647.4 1378.6 1662.5 1353.5 1645.2C1352 1644.7 1350.2 1644.9 1349.5 1645.9 1348.7 1646.9 1348.7 1648.1 1349.2 1649.1 1349.4 1649.6 1349.4 1649.6 1350.2 1649.9L1378.1 1669 1376.4 1692.1 1356.2 1674.8 1357.5 1701.4 1338.2 1688.5 1340.2 1654.8C1340.2 1653.5 1339.5 1652 1337.5 1651.7 1336.3 1651.7 1335 1653 1334.5 1654.5L1332.7 1685 1320.4 1676.2 1321.3 1661.6C1321.8 1660.1 1320.5 1658.8 1318.6 1658.5 1317.3 1658.5 1316.1 1659.8 1315.6 1661.3L1315 1672.7 1298.6 1662.1C1297.4 1660.9 1295.9 1661.6 1294.7 1662.8 1294.4 1663.6 1294.4 1664.8 1294.6 1665.3 1294.9 1665.8 1295.1 1666.3 1295.9 1666.6L1311.7 1677.4 1301.2 1682.5C1299.7 1683.2 1299.5 1685.2 1299.9 1686.2L1299.9 1686.2C1300.7 1687.7 1302.2 1688.2 1303.7 1687.5L1317.1 1680.9 1329.5 1689.7 1302.5 1702.9C1301 1703.6 1300.5 1705.1 1301.3 1706.6S1303.5 1708.6 1305 1707.9L1334.9 1693.2 1354.2 1706 1329.5 1715 1352.8 1727.2 1331.8 1737.4 1304.1 1718.8C1302.4 1717.8 1300.9 1718.5 1300.2 1719.5 1299.4 1720.5 1299.6 1722.2 1300.9 1723.5L1325.8 1740.4 1312.9 1746.7 1300.3 1738.6C1299 1737.4 1297.3 1737.6 1296.3 1739.4 1295.5 1740.3 1295.7 1742.1 1297 1743.3L1306.9 1749.6 1289.4 1758.2C1287.9 1758.9 1287.4 1760.4 1288.1 1761.9S1290.4 1763.9 1291.8 1763.2L1309.3 1754.6 1308.7 1766C1308.5 1766.8 1308.7 1767.3 1309 1767.8 1309.4 1768.8 1310.2 1769 1310.9 1769.3 1312.9 1769.6 1314.2 1768.3 1313.9 1766.6L1315.3 1751.7 1328.8 1745.1 1326.3 1775.4C1326.5 1775.9 1326.8 1776.4 1327 1776.9 1327.5 1777.9 1328.2 1778.1 1329 1778.4 1331 1778.7 1332.2 1777.4 1332 1775.7L1334.3 1742.4 1355.2 1732.1 1350.5 1757.9 1372.8 1744 1371.1 1767.1 1341.1 1781.7C1339.6 1782.5 1339.4 1784.4 1339.9 1785.4 1340.6 1786.9 1342.1 1787.4 1343.6 1786.7L1370.5 1773.5 1369.9 1788.7 1356.4 1795.3C1354.9 1796 1354.4 1797.5 1355.2 1799S1357.4 1801 1358.9 1800.3L1369.4 1795.1 1368.2 1814.2C1367.9 1815 1368.2 1815.5 1368.4 1816 1368.7 1816.5 1369.7 1817.2 1370.9 1817.2 1372.1 1817.3 1373.6 1816.5 1373.4 1814.8ZM1358.1 1746.8L1362 1725.7 1342.9 1715.9 1363.4 1708.4 1362.3 1687.2 1378.8 1700.8 1396.8 1689.5 1392.9 1710.6 1412 1720.4 1392 1727.7 1392.6 1749.1 1376.6 1735.3 1358.1 1746.8Z" fill="rgba(51, 51, 51, 1)"></path></g><defs><mask id="SvgjsMask1018"><rect width="1440" height="2000" fill="#ffffff"></rect></mask><filter id="SvgjsFilter1019"><feGaussianBlur stdDeviation="1"></feGaussianBlur></filter></defs></svg>